<svg xmlns="http://www.w3.org/2000/svg" width="2200" height="2250" viewBox="0 0 2200 2250">
  <defs>
    <style>
      .bg { fill: #f7f7f8; }
      .board { fill: #ffffff; stroke: #d9d9de; stroke-width: 2; }
      .title { font: 700 24px Arial, sans-serif; fill: #1f2937; }
      .subtitle { font: 600 18px Arial, sans-serif; fill: #374151; }
      .label { font: 500 14px Arial, sans-serif; fill: #4b5563; }
      .small { font: 400 12px Arial, sans-serif; fill: #6b7280; }
      .nav { fill: #ffffff; stroke: #cfd4dc; stroke-width: 1.5; }
      .box { fill: #ffffff; stroke: #cfd4dc; stroke-width: 1.5; }
      .muted { fill: #f3f4f6; stroke: #d1d5db; stroke-width: 1.2; }
      .dark { fill: #e5e7eb; stroke: #c7ccd4; stroke-width: 1.2; }
      .button { fill: #eef2f7; stroke: #b8c1cc; stroke-width: 1.4; }
      .accent { fill: #e9eef7; stroke: #aebcd0; stroke-width: 1.4; }
      .line { stroke: #cfd4dc; stroke-width: 1.2; }
      .dash { stroke: #cfd4dc; stroke-width: 1.2; stroke-dasharray: 6 5; }
      .chip { fill: #f8fafc; stroke: #d5dbe3; stroke-width: 1; }
    </style>
  </defs>

  <rect class="bg" x="0" y="0" width="2200" height="2250"/>

  <text x="70" y="60" class="title">Интернет-магазин лампочек wireframe</text>

  <!-- helpers -->
  <g id="header">
    <rect class="nav" x="0" y="0" width="460" height="56" rx="12"/>
    <text x="18" y="34" class="subtitle">Лого</text>
    <rect class="muted" x="95" y="14" width="150" height="28" rx="14"/>
    <text x="112" y="33" class="small">Поиск по товарам</text>
    <text x="285" y="33" class="label">Каталог</text>
    <text x="355" y="33" class="label">Акции</text>
    <text x="412" y="33" class="label">Контакты</text>
  </g>

  <g id="footer">
    <rect class="nav" x="0" y="0" width="460" height="42" rx="10"/>
    <text x="18" y="26" class="small">Контакты • Телефон • Email • Адрес магазина</text>
  </g>

  <!-- Board 1 Home -->
  <g transform="translate(70,130)">
    <rect class="board" x="0" y="0" width="500" height="650" rx="22"/>
    <text x="24" y="38" class="subtitle">1. Главная</text>
    <g transform="translate(20,58)">
      <use href="#header"/>
      <rect class="accent" x="0" y="76" width="460" height="150" rx="20"/>
      <text x="24" y="112" class="subtitle">Большой промо-баннер</text>
      <text x="24" y="138" class="label">Акции / новинки / сезонные предложения</text>
      <rect class="button" x="24" y="162" width="110" height="34" rx="17"/>
      <text x="45" y="184" class="label">Смотреть</text>

      <text x="0" y="262" class="subtitle">Категории</text>
      <rect class="box" x="0" y="278" width="144" height="82" rx="16"/>
      <rect class="box" x="158" y="278" width="144" height="82" rx="16"/>
      <rect class="box" x="316" y="278" width="144" height="82" rx="16"/>
      <text x="32" y="322" class="label">Обычные</text>
      <text x="188" y="322" class="label">Бытовые</text>
      <text x="340" y="322" class="label">Акции</text>

      <text x="0" y="396" class="subtitle">Популярные товары</text>
      <rect class="box" x="0" y="414" width="144" height="136" rx="16"/>
      <rect class="box" x="158" y="414" width="144" height="136" rx="16"/>
      <rect class="box" x="316" y="414" width="144" height="136" rx="16"/>
      <rect class="muted" x="14" y="426" width="116" height="56" rx="12"/>
      <rect class="muted" x="172" y="426" width="116" height="56" rx="12"/>
      <rect class="muted" x="330" y="426" width="116" height="56" rx="12"/>
      <text x="18" y="502" class="small">Фото • Название • Цена</text>
      <text x="176" y="502" class="small">Фото • Название • Цена</text>
      <text x="334" y="502" class="small">Фото • Название • Цена</text>
      <rect class="button" x="18" y="514" width="106" height="24" rx="12"/>
      <rect class="button" x="176" y="514" width="106" height="24" rx="12"/>
      <rect class="button" x="334" y="514" width="106" height="24" rx="12"/>

      <g transform="translate(0,578)">
        <use href="#footer"/>
      </g>
    </g>
  </g>

  <!-- Board 2 Catalog -->
  <g transform="translate(620,130)">
    <rect class="board" x="0" y="0" width="500" height="650" rx="22"/>
    <text x="24" y="38" class="subtitle">2. Каталог</text>
    <g transform="translate(20,58)">
      <use href="#header"/>
      <rect class="box" x="0" y="76" width="112" height="474" rx="16"/>
      <text x="18" y="106" class="label">Фильтры</text>
      <rect class="chip" x="18" y="122" width="76" height="24" rx="12"/>
      <rect class="chip" x="18" y="156" width="72" height="24" rx="12"/>
      <rect class="chip" x="18" y="190" width="82" height="24" rx="12"/>
      <line class="line" x1="18" y1="230" x2="94" y2="230"/>
      <text x="18" y="252" class="small">Наличие</text>
      <rect class="muted" x="18" y="262" width="76" height="16" rx="8"/>
      <rect class="muted" x="18" y="290" width="66" height="16" rx="8"/>

      <text x="136" y="100" class="subtitle">Список товаров</text>
      <rect class="muted" x="362" y="82" width="98" height="28" rx="14"/>
      <text x="382" y="101" class="small">Сортировка</text>

      <!-- grid -->
      <g transform="translate(136,124)">
        <rect class="box" x="0" y="0" width="148" height="172" rx="16"/>
        <rect class="box" x="156" y="0" width="148" height="172" rx="16"/>
        <rect class="box" x="0" y="184" width="148" height="172" rx="16"/>
        <rect class="box" x="156" y="184" width="148" height="172" rx="16"/>

        <rect class="muted" x="12" y="12" width="124" height="70" rx="12"/>
        <rect class="muted" x="168" y="12" width="124" height="70" rx="12"/>
        <rect class="muted" x="12" y="196" width="124" height="70" rx="12"/>
        <rect class="muted" x="168" y="196" width="124" height="70" rx="12"/>

        <text x="12" y="100" class="small">Название товара</text>
        <text x="168" y="100" class="small">Название товара</text>
        <text x="12" y="284" class="small">Название товара</text>
        <text x="168" y="284" class="small">Название товара</text>

        <rect class="chip" x="12" y="112" width="64" height="20" rx="10"/>
        <rect class="chip" x="168" y="112" width="64" height="20" rx="10"/>
        <rect class="chip" x="12" y="296" width="64" height="20" rx="10"/>
        <rect class="chip" x="168" y="296" width="64" height="20" rx="10"/>

        <rect class="button" x="12" y="138" width="112" height="22" rx="11"/>
        <rect class="button" x="168" y="138" width="112" height="22" rx="11"/>
        <rect class="button" x="12" y="322" width="112" height="22" rx="11"/>
        <rect class="button" x="168" y="322" width="112" height="22" rx="11"/>
      </g>

      <g transform="translate(0,578)">
        <use href="#footer"/>
      </g>
    </g>
  </g>

  <!-- Board 3 Product -->
  <g transform="translate(1170,130)">
    <rect class="board" x="0" y="0" width="500" height="650" rx="22"/>
    <text x="24" y="38" class="subtitle">3. Карточка товара</text>
    <g transform="translate(20,58)">
      <use href="#header"/>
      <rect class="muted" x="0" y="76" width="200" height="220" rx="18"/>
      <text x="36" y="190" class="label">Фото товара</text>

      <text x="224" y="104" class="subtitle">Лампочка бытовая LED 12W</text>
      <rect class="chip" x="224" y="120" width="74" height="22" rx="11"/>
      <text x="240" y="136" class="small">В наличии</text>
      <rect class="chip" x="308" y="120" width="58" height="22" rx="11"/>
      <text x="324" y="136" class="small">Акция</text>

      <text x="224" y="168" class="label">Цена: 290 ₽</text>
      <text x="224" y="196" class="small">Краткое описание товара в 2–3 строки</text>
      <text x="224" y="214" class="small">Мощность, тип цоколя, срок службы</text>

      <rect class="button" x="224" y="236" width="136" height="36" rx="18"/>
      <text x="258" y="259" class="label">В корзину</text>

      <rect class="box" x="0" y="320" width="460" height="110" rx="16"/>
      <text x="18" y="348" class="label">Характеристики</text>
      <line class="line" x1="18" y1="360" x2="442" y2="360"/>
      <text x="18" y="386" class="small">Тип: бытовая</text>
      <text x="160" y="386" class="small">Мощность: 12W</text>
      <text x="300" y="386" class="small">Цоколь: E27</text>
      <text x="18" y="410" class="small">Цвет: теплый белый</text>
      <text x="180" y="410" class="small">Поставщик: завод</text>

      <rect class="box" x="0" y="446" width="460" height="104" rx="16"/>
      <text x="18" y="474" class="label">Отзывы</text>
      <rect class="muted" x="18" y="488" width="180" height="14" rx="7"/>
      <rect class="muted" x="18" y="510" width="300" height="12" rx="6"/>
      <rect class="muted" x="18" y="530" width="260" height="12" rx="6"/>

      <g transform="translate(0,578)">
        <use href="#footer"/>
      </g>
    </g>
  </g>

  <!-- Board 4 Cart -->
  <g transform="translate(70,830)">
    <rect class="board" x="0" y="0" width="500" height="650" rx="22"/>
    <text x="24" y="38" class="subtitle">4. Корзина</text>
    <g transform="translate(20,58)">
      <use href="#header"/>
      <rect class="box" x="0" y="76" width="300" height="474" rx="16"/>
      <text x="18" y="106" class="label">Товары в корзине</text>

      <g transform="translate(18,126)">
        <rect class="muted" x="0" y="0" width="64" height="54" rx="10"/>
        <text x="78" y="22" class="small">Лампочка LED 12W</text>
        <text x="78" y="42" class="small">290 ₽ • 1 шт</text>
        <line class="line" x1="0" y1="70" x2="264" y2="70"/>

        <rect class="muted" x="0" y="90" width="64" height="54" rx="10"/>
        <text x="78" y="112" class="small">Лампочка бытовая 9W</text>
        <text x="78" y="132" class="small">240 ₽ • 2 шт</text>
        <line class="line" x1="0" y1="160" x2="264" y2="160"/>

        <rect class="muted" x="0" y="180" width="64" height="54" rx="10"/>
        <text x="78" y="202" class="small">Товар под акцией</text>
        <text x="78" y="222" class="small">199 ₽ • 1 шт</text>
      </g>

      <rect class="box" x="320" y="76" width="140" height="220" rx="16"/>
      <text x="338" y="106" class="label">Итого</text>
      <rect class="muted" x="338" y="124" width="92" height="14" rx="7"/>
      <rect class="muted" x="338" y="152" width="84" height="14" rx="7"/>
      <rect class="muted" x="338" y="180" width="100" height="14" rx="7"/>
      <rect class="button" x="338" y="224" width="104" height="34" rx="17"/>
      <text x="352" y="246" class="label">Оформить</text>

      <g transform="translate(0,578)">
        <use href="#footer"/>
      </g>
    </g>
  </g>

  <!-- Board 5 Checkout -->
  <g transform="translate(620,830)">
    <rect class="board" x="0" y="0" width="500" height="650" rx="22"/>
    <text x="24" y="38" class="subtitle">5. Оформление заказа</text>
    <g transform="translate(20,58)">
      <use href="#header"/>
      <rect class="box" x="0" y="76" width="280" height="474" rx="16"/>
      <text x="18" y="106" class="label">Контактные данные</text>
      <rect class="muted" x="18" y="126" width="244" height="34" rx="10"/>
      <rect class="muted" x="18" y="172" width="244" height="34" rx="10"/>
      <rect class="muted" x="18" y="218" width="244" height="34" rx="10"/>
      <rect class="muted" x="18" y="264" width="244" height="80" rx="10"/>
      <text x="24" y="147" class="small">Имя</text>
      <text x="24" y="193" class="small">Телефон</text>
      <text x="24" y="239" class="small">Email</text>
      <text x="24" y="285" class="small">Комментарий к заказу</text>

      <rect class="box" x="300" y="76" width="160" height="260" rx="16"/>
      <text x="318" y="106" class="label">Ваш заказ</text>
      <rect class="muted" x="318" y="126" width="120" height="14" rx="7"/>
      <rect class="muted" x="318" y="148" width="102" height="14" rx="7"/>
      <line class="line" x1="318" y1="178" x2="440" y2="178"/>
      <rect class="muted" x="318" y="194" width="90" height="14" rx="7"/>
      <rect class="button" x="318" y="236" width="124" height="34" rx="17"/>
      <text x="334" y="258" class="label">Подтвердить</text>

      <text x="300" y="382" class="small">Онлайн-оплата не требуется.</text>
      <text x="300" y="402" class="small">Менеджер свяжется после заказа.</text>

      <g transform="translate(0,578)">
        <use href="#footer"/>
      </g>
    </g>
  </g>

  <!-- Board 6 Contacts -->
  <g transform="translate(1170,830)">
    <rect class="board" x="0" y="0" width="500" height="650" rx="22"/>
    <text x="24" y="38" class="subtitle">6. Контакты</text>
    <g transform="translate(20,58)">
      <use href="#header"/>
      <rect class="box" x="0" y="76" width="200" height="210" rx="16"/>
      <text x="18" y="106" class="label">Контактная информация</text>
      <text x="18" y="142" class="small">Телефон: +7 (___) ___-__-__</text>
      <text x="18" y="168" class="small">Email: shop@lamp.ru</text>
      <text x="18" y="194" class="small">Адрес: г. ___, ул. ___</text>
      <text x="18" y="220" class="small">Режим работы: 9:00–18:00</text>

      <rect class="muted" x="220" y="76" width="240" height="210" rx="16"/>
      <text x="306" y="184" class="label">Карта / схема проезда</text>

      <rect class="box" x="0" y="306" width="460" height="144" rx="16"/>
      <text x="18" y="336" class="label">Обратная связь</text>
      <rect class="muted" x="18" y="354" width="200" height="34" rx="10"/>
      <rect class="muted" x="232" y="354" width="210" height="34" rx="10"/>
      <rect class="muted" x="18" y="400" width="424" height="34" rx="10"/>

      <g transform="translate(0,578)">
        <use href="#footer"/>
      </g>
    </g>
  </g>

  <!-- Board 7 Admin -->
  <g transform="translate(1720,130)">
    <rect class="board" x="0" y="0" width="410" height="820" rx="22"/>
    <text x="24" y="38" class="subtitle">7. Админка</text>
    <g transform="translate(20,58)">
      <rect class="nav" x="0" y="0" width="370" height="56" rx="12"/>
      <text x="18" y="34" class="subtitle">Панель управления</text>

      <rect class="box" x="0" y="76" width="86" height="680" rx="16"/>
      <text x="18" y="108" class="small">Товары</text>
      <text x="18" y="136" class="small">Заказы</text>
      <text x="18" y="164" class="small">Акции</text>
      <text x="18" y="192" class="small">Отзывы</text>
      <text x="18" y="220" class="small">Импорт</text>

      <rect class="box" x="104" y="76" width="266" height="320" rx="16"/>
      <text x="122" y="108" class="label">Список товаров</text>
      <rect class="muted" x="122" y="124" width="230" height="28" rx="10"/>
      <g transform="translate(122,168)">
        <line class="line" x1="0" y1="0" x2="230" y2="0"/>
        <text x="0" y="24" class="small">LED 12W</text>
        <text x="142" y="24" class="small">В наличии</text>
        <line class="line" x1="0" y1="36" x2="230" y2="36"/>
        <text x="0" y="60" class="small">Бытовая 9W</text>
        <text x="142" y="60" class="small">Акция</text>
        <line class="line" x1="0" y1="72" x2="230" y2="72"/>
        <text x="0" y="96" class="small">Ретро E27</text>
        <text x="142" y="96" class="small">Ожидается</text>
      </g>

      <rect class="box" x="104" y="416" width="266" height="184" rx="16"/>
      <text x="122" y="448" class="label">Редактирование товара</text>
      <rect class="muted" x="122" y="464" width="230" height="28" rx="10"/>
      <rect class="muted" x="122" y="502" width="230" height="28" rx="10"/>
      <rect class="muted" x="122" y="540" width="108" height="28" rx="10"/>
      <rect class="button" x="248" y="540" width="104" height="28" rx="14"/>
      <text x="280" y="559" class="small">Сохранить</text>

      <rect class="box" x="104" y="620" width="266" height="136" rx="16"/>
      <text x="122" y="652" class="label">Импорт от поставщика</text>
      <rect class="dash" x="122" y="668" width="230" height="50" rx="12" fill="none"/>
      <text x="168" y="698" class="small">Загрузка CSV / Excel</text>
    </g>
  </g>

  <!-- ===== ROW 3 ===== -->

  <!-- Board 8 Order Confirmed -->
  <g transform="translate(70,1540)">
    <rect class="board" x="0" y="0" width="500" height="620" rx="22"/>
    <text x="24" y="38" class="subtitle">8. Заказ принят</text>
    <g transform="translate(20,58)">
      <use href="#header"/>
      <circle cx="230" cy="128" r="46" fill="#f0fdf4" stroke="#86efac" stroke-width="2.5"/>
      <path d="M208,128 L222,142 L252,112" stroke="#4ade80" stroke-width="3" fill="none" stroke-linecap="round" stroke-linejoin="round"/>

      <text x="230" y="204" text-anchor="middle" class="subtitle">Заказ №1234 принят!</text>
      <text x="230" y="228" text-anchor="middle" class="label">Менеджер свяжется с вами в течение часа</text>
      <text x="230" y="248" text-anchor="middle" class="small">Контакт: +7 (___) ___-__-__</text>

      <rect class="box" x="36" y="268" width="388" height="128" rx="16"/>
      <text x="54" y="296" class="label">Состав заказа</text>
      <line class="line" x1="54" y1="308" x2="406" y2="308"/>
      <text x="54" y="332" class="small">Лампочка LED 12W · 1 шт</text>
      <text x="340" y="332" class="small">290 ₽</text>
      <text x="54" y="356" class="small">Лампочка бытовая 9W · 2 шт</text>
      <text x="340" y="356" class="small">480 ₽</text>
      <line class="line" x1="54" y1="372" x2="406" y2="372"/>
      <text x="54" y="390" class="small">Итого</text>
      <text x="340" y="390" class="small">770 ₽</text>

      <rect class="button" x="164" y="422" width="132" height="36" rx="18"/>
      <text x="197" y="445" class="label">На главную</text>

      <g transform="translate(0,540)">
        <use href="#footer"/>
      </g>
    </g>
  </g>

  <!-- Board 9 Admin Orders -->
  <g transform="translate(620,1540)">
    <rect class="board" x="0" y="0" width="500" height="620" rx="22"/>
    <text x="24" y="38" class="subtitle">9. Админка — Заказы</text>
    <g transform="translate(20,58)">
      <rect class="nav" x="0" y="0" width="460" height="56" rx="12"/>
      <text x="18" y="34" class="subtitle">Панель управления</text>

      <rect class="box" x="0" y="76" width="86" height="480" rx="16"/>
      <text x="12" y="108" class="small">Товары</text>
      <rect class="accent" x="4" y="120" width="78" height="24" rx="12"/>
      <text x="12" y="136" class="small">Заказы</text>
      <text x="12" y="164" class="small">Акции</text>
      <text x="12" y="192" class="small">Отзывы</text>
      <text x="12" y="220" class="small">Импорт</text>

      <rect class="box" x="104" y="76" width="356" height="480" rx="16"/>
      <text x="122" y="108" class="label">Заказы</text>
      <rect class="dark" x="122" y="118" width="52" height="22" rx="11"/>
      <text x="133" y="133" class="small">Все</text>
      <rect class="chip" x="182" y="118" width="68" height="22" rx="11"/>
      <text x="191" y="133" class="small">Новые</text>
      <rect class="chip" x="258" y="118" width="86" height="22" rx="11"/>
      <text x="267" y="133" class="small">В обработке</text>
      <rect class="chip" x="352" y="118" width="80" height="22" rx="11"/>
      <text x="361" y="133" class="small">Выполнен</text>

      <line class="line" x1="122" y1="154" x2="442" y2="154"/>
      <text x="122" y="172" class="small">№</text>
      <text x="150" y="172" class="small">Клиент</text>
      <text x="248" y="172" class="small">Сумма</text>
      <text x="308" y="172" class="small">Статус</text>
      <text x="400" y="172" class="small">Дата</text>
      <line class="line" x1="122" y1="180" x2="442" y2="180"/>

      <text x="122" y="200" class="small">1234</text>
      <text x="150" y="200" class="small">Иванов И.</text>
      <text x="248" y="200" class="small">770 ₽</text>
      <rect class="chip" x="302" y="188" width="64" height="18" rx="9"/>
      <text x="311" y="200" class="small">Новый</text>
      <text x="400" y="200" class="small">10.04</text>
      <line class="line" x1="122" y1="212" x2="442" y2="212"/>

      <text x="122" y="232" class="small">1233</text>
      <text x="150" y="232" class="small">Петрова А.</text>
      <text x="248" y="232" class="small">1290 ₽</text>
      <rect class="muted" x="302" y="220" width="80" height="18" rx="9"/>
      <text x="309" y="232" class="small">В обработке</text>
      <text x="400" y="232" class="small">09.04</text>
      <line class="line" x1="122" y1="244" x2="442" y2="244"/>

      <text x="122" y="264" class="small">1232</text>
      <text x="150" y="264" class="small">Сидоров В.</text>
      <text x="248" y="264" class="small">580 ₽</text>
      <rect class="dark" x="302" y="252" width="72" height="18" rx="9"/>
      <text x="310" y="264" class="small">Выполнен</text>
      <text x="400" y="264" class="small">08.04</text>
      <line class="line" x1="122" y1="276" x2="442" y2="276"/>

      <text x="122" y="296" class="small">1231</text>
      <text x="150" y="296" class="small">Козлов Д.</text>
      <text x="248" y="296" class="small">2150 ₽</text>
      <rect class="dark" x="302" y="284" width="72" height="18" rx="9"/>
      <text x="310" y="296" class="small">Выполнен</text>
      <text x="400" y="296" class="small">07.04</text>
      <line class="line" x1="122" y1="308" x2="442" y2="308"/>

      <rect class="box" x="122" y="326" width="320" height="210" rx="14"/>
      <text x="140" y="354" class="label">Заказ №1234 — детали</text>
      <line class="line" x1="140" y1="364" x2="424" y2="364"/>
      <text x="140" y="386" class="small">Клиент: Иванов Иван</text>
      <text x="140" y="408" class="small">Телефон: +7 900 000-00-00</text>
      <text x="140" y="430" class="small">Комментарий: позвонить после 18:00</text>
      <text x="140" y="452" class="small">Сумма: 770 ₽</text>
      <text x="140" y="478" class="small">Статус:</text>
      <rect class="muted" x="192" y="466" width="104" height="22" rx="11"/>
      <text x="200" y="481" class="small">▾ Новый</text>
      <rect class="button" x="316" y="466" width="106" height="22" rx="11"/>
      <text x="336" y="481" class="small">Сохранить</text>
    </g>
  </g>

  <!-- Board 10 Admin Promos -->
  <g transform="translate(1170,1540)">
    <rect class="board" x="0" y="0" width="500" height="620" rx="22"/>
    <text x="24" y="38" class="subtitle">10. Админка — Акции</text>
    <g transform="translate(20,58)">
      <rect class="nav" x="0" y="0" width="460" height="56" rx="12"/>
      <text x="18" y="34" class="subtitle">Панель управления</text>

      <rect class="box" x="0" y="76" width="86" height="480" rx="16"/>
      <text x="12" y="108" class="small">Товары</text>
      <text x="12" y="136" class="small">Заказы</text>
      <rect class="accent" x="4" y="148" width="78" height="24" rx="12"/>
      <text x="12" y="164" class="small">Акции</text>
      <text x="12" y="192" class="small">Отзывы</text>
      <text x="12" y="220" class="small">Импорт</text>

      <rect class="box" x="104" y="76" width="356" height="480" rx="16"/>
      <text x="122" y="108" class="label">Акции</text>
      <rect class="button" x="330" y="92" width="112" height="28" rx="14"/>
      <text x="350" y="110" class="small">+ Создать</text>

      <line class="line" x1="122" y1="132" x2="442" y2="132"/>
      <text x="122" y="152" class="small">Название</text>
      <text x="262" y="152" class="small">Скидка</text>
      <text x="308" y="152" class="small">Период</text>
      <text x="422" y="152" class="small">Акт.</text>
      <line class="line" x1="122" y1="160" x2="442" y2="160"/>

      <text x="122" y="180" class="small">Весенний sale</text>
      <text x="262" y="180" class="small">15%</text>
      <text x="308" y="180" class="small">01–30.04</text>
      <rect class="dark" x="422" y="168" width="16" height="16" rx="8"/>
      <line class="line" x1="122" y1="192" x2="442" y2="192"/>

      <text x="122" y="212" class="small">Новинки лета</text>
      <text x="262" y="212" class="small">10%</text>
      <text x="308" y="212" class="small">01–31.05</text>
      <rect class="muted" x="422" y="200" width="16" height="16" rx="8"/>
      <line class="line" x1="122" y1="224" x2="442" y2="224"/>

      <text x="122" y="244" class="small">Распродажа остатков</text>
      <text x="262" y="244" class="small">30%</text>
      <text x="308" y="244" class="small">15–20.04</text>
      <rect class="dark" x="422" y="232" width="16" height="16" rx="8"/>
      <line class="line" x1="122" y1="256" x2="442" y2="256"/>

      <rect class="box" x="122" y="276" width="320" height="260" rx="14"/>
      <text x="140" y="304" class="label">Редактирование акции</text>
      <line class="line" x1="140" y1="314" x2="424" y2="314"/>
      <rect class="muted" x="140" y="330" width="284" height="30" rx="10"/>
      <text x="148" y="350" class="small">Название акции</text>
      <rect class="muted" x="140" y="372" width="120" height="30" rx="10"/>
      <text x="148" y="392" class="small">Скидка %</text>
      <rect class="muted" x="272" y="372" width="152" height="30" rx="10"/>
      <text x="280" y="392" class="small">Период (дд.мм — дд.мм)</text>
      <rect class="muted" x="140" y="414" width="284" height="50" rx="10"/>
      <text x="148" y="444" class="small">Описание (необязательно)</text>
      <rect class="button" x="300" y="478" width="104" height="28" rx="14"/>
      <text x="320" y="497" class="small">Сохранить</text>
    </g>
  </g>

  <!-- Board 11 Admin Reviews -->
  <g transform="translate(1720,1540)">
    <rect class="board" x="0" y="0" width="430" height="620" rx="22"/>
    <text x="24" y="38" class="subtitle">11. Админка — Отзывы</text>
    <g transform="translate(20,58)">
      <rect class="nav" x="0" y="0" width="390" height="56" rx="12"/>
      <text x="18" y="34" class="subtitle">Панель управления</text>

      <rect class="box" x="0" y="76" width="80" height="480" rx="16"/>
      <text x="10" y="108" class="small">Товары</text>
      <text x="10" y="136" class="small">Заказы</text>
      <text x="10" y="164" class="small">Акции</text>
      <rect class="accent" x="4" y="176" width="72" height="24" rx="12"/>
      <text x="10" y="192" class="small">Отзывы</text>
      <text x="10" y="220" class="small">Импорт</text>

      <rect class="box" x="96" y="76" width="294" height="480" rx="16"/>
      <text x="114" y="108" class="label">Отзывы</text>
      <rect class="dark" x="114" y="118" width="52" height="22" rx="11"/>
      <text x="123" y="133" class="small">Все</text>
      <rect class="chip" x="174" y="118" width="106" height="22" rx="11"/>
      <text x="183" y="133" class="small">На модерации</text>

      <line class="line" x1="114" y1="154" x2="372" y2="154"/>
      <text x="114" y="174" class="small">Лампочка LED 12W</text>
      <rect class="muted" x="114" y="180" width="14" height="10" rx="3"/>
      <rect class="muted" x="132" y="180" width="14" height="10" rx="3"/>
      <rect class="muted" x="150" y="180" width="14" height="10" rx="3"/>
      <rect class="muted" x="168" y="180" width="14" height="10" rx="3"/>
      <rect class="chip"  x="186" y="180" width="14" height="10" rx="3"/>
      <text x="114" y="206" class="small">Иванов И. — Отличная, светит ярко</text>
      <rect class="button" x="114" y="214" width="80" height="22" rx="11"/>
      <text x="127" y="229" class="small">Одобрить</text>
      <rect class="muted" x="202" y="214" width="72" height="22" rx="11"/>
      <text x="215" y="229" class="small">Отклонить</text>

      <line class="line" x1="114" y1="248" x2="372" y2="248"/>
      <text x="114" y="268" class="small">Бытовая 9W</text>
      <rect class="muted" x="114" y="274" width="14" height="10" rx="3"/>
      <rect class="muted" x="132" y="274" width="14" height="10" rx="3"/>
      <rect class="muted" x="150" y="274" width="14" height="10" rx="3"/>
      <rect class="chip"  x="168" y="274" width="14" height="10" rx="3"/>
      <rect class="chip"  x="186" y="274" width="14" height="10" rx="3"/>
      <text x="114" y="300" class="small">Петрова А. — Нормально, но греется</text>
      <rect class="button" x="114" y="308" width="80" height="22" rx="11"/>
      <text x="127" y="323" class="small">Одобрить</text>
      <rect class="muted" x="202" y="308" width="72" height="22" rx="11"/>
      <text x="215" y="323" class="small">Отклонить</text>

      <line class="line" x1="114" y1="342" x2="372" y2="342"/>
      <text x="114" y="362" class="small">Ретро E27</text>
      <rect class="muted" x="114" y="368" width="14" height="10" rx="3"/>
      <rect class="muted" x="132" y="368" width="14" height="10" rx="3"/>
      <rect class="muted" x="150" y="368" width="14" height="10" rx="3"/>
      <rect class="muted" x="168" y="368" width="14" height="10" rx="3"/>
      <rect class="muted" x="186" y="368" width="14" height="10" rx="3"/>
      <text x="114" y="394" class="small">Сидоров В. — Красиво, в интерьер вписалась</text>
      <rect class="button" x="114" y="402" width="80" height="22" rx="11"/>
      <text x="127" y="417" class="small">Одобрить</text>
      <rect class="muted" x="202" y="402" width="72" height="22" rx="11"/>
      <text x="215" y="417" class="small">Отклонить</text>
    </g>
  </g>

</svg>
